<?xml version="1.0" standalone="no"?>
<!DOCTYPE svg PUBLIC "-//W3C//DTD SVG 1.0//EN" "http://www.w3.org/TR/2001/REC-SVG-20010904/DTD/svg10.dtd">
<svg xmlns="http://www.w3.org/2000/svg" xmlns:xlink="http://www.w3.org/1999/xlink" id="body_1" width="1067" height="1067">

<g transform="matrix(1.33375 0 0 1.33375 0 0)">
	<g transform="matrix(0.1 0 -0 -0.1 0 800)">
        <path d="M3655 7859C 2899 7780 2339 7569 1706 7126C 1689 7115 1673 7103 1670 7100C 1667 7097 1621 7059 1566 7016C -161 5639 -363 3039 1130 1395C 2615 -240 5177 -301 6739 1261C 8251 2772 8251 5224 6740 6740C 6282 7199 5716 7536 5100 7715C 4826 7794 4655 7826 4328 7860C 4215 7872 3770 7871 3655 7859zM4380 6344C 5140 6247 5851 5796 6298 5128C 6611 4661 6699 3882 6476 3547C 6340 3343 6162 3297 5870 3394C 5583 3488 5285 3549 4935 3584C 4858 3592 4792 3596 4788 3592C 4756 3560 4862 2860 4926 2683C 5162 2030 4733 1553 3935 1583C 3216 1609 2836 2091 3070 2678C 3124 2811 3192 3213 3207 3479C 3213 3593 3213 3593 3109 3586C 2806 3567 2443 3494 2135 3392C 1839 3293 1645 3346 1515 3560C 1306 3904 1394 4671 1693 5115C 2310 6030 3298 6482 4380 6344z" stroke="none" fill="#A8DA32" fill-rule="nonzero" />
        <path d="M4730 6128C 4730 6121 4778 6099 4838 6080C 4976 6035 4970 6036 4970 6053C 4970 6062 4931 6080 4863 6104C 4745 6144 4730 6146 4730 6128z" stroke="none" fill="#A8DA32" fill-rule="nonzero" />
        <path d="M4990 6036C 4990 6024 5078 5980 5101 5980C 5129 5980 5102 6010 5059 6029C 4998 6054 4990 6055 4990 6036z" stroke="none" fill="#A8DA32" fill-rule="nonzero" />
        <path d="M5120 5977C 5120 5965 5219 5910 5240 5910C 5268 5910 5243 5939 5195 5963C 5133 5993 5120 5996 5120 5977z" stroke="none" fill="#A8DA32" fill-rule="nonzero" />
        <path d="M5270 5896C 5270 5888 5280 5878 5292 5874C 5304 5871 5320 5861 5328 5854C 5335 5846 5348 5840 5356 5840C 5364 5840 5370 5836 5370 5830C 5370 5825 5377 5820 5385 5820C 5393 5820 5400 5816 5400 5810C 5400 5805 5407 5800 5415 5800C 5423 5800 5430 5796 5430 5790C 5430 5785 5437 5780 5445 5780C 5453 5780 5460 5776 5460 5770C 5460 5765 5466 5760 5474 5760C 5482 5760 5490 5753 5494 5745C 5497 5737 5506 5730 5514 5730C 5521 5730 5530 5723 5534 5715C 5537 5707 5546 5700 5555 5700C 5577 5700 5574 5731 5551 5737C 5540 5740 5529 5748 5526 5756C 5523 5764 5514 5770 5505 5770C 5497 5770 5490 5775 5490 5780C 5490 5786 5483 5790 5475 5790C 5467 5790 5460 5795 5460 5800C 5460 5806 5453 5810 5445 5810C 5437 5810 5430 5815 5430 5820C 5430 5826 5423 5830 5415 5830C 5407 5830 5400 5835 5400 5840C 5400 5846 5393 5850 5385 5850C 5377 5850 5370 5854 5370 5859C 5370 5864 5360 5872 5348 5876C 5336 5879 5320 5889 5312 5896C 5294 5914 5270 5914 5270 5896z" stroke="none" fill="#A8DA32" fill-rule="nonzero" />
        <path d="M5622 5654C 5626 5634 5656 5613 5667 5623C 5677 5634 5656 5664 5636 5668C 5624 5671 5619 5666 5622 5654z" stroke="none" fill="#A8DA32" fill-rule="nonzero" />
        <path d="M5702 5584C 5706 5564 5736 5543 5747 5553C 5757 5564 5736 5594 5716 5598C 5704 5601 5699 5596 5702 5584z" stroke="none" fill="#A8DA32" fill-rule="nonzero" />
        <path d="M1626 4698C 1617 4664 1618 4660 1635 4660C 1643 4660 1650 4663 1650 4668C 1650 4672 1653 4685 1656 4698C 1661 4714 1658 4720 1647 4720C 1639 4720 1630 4710 1626 4698z" stroke="none" fill="#A8DA32" fill-rule="nonzero" />
        <path d="M1591 4572C 1566 4480 1566 4470 1583 4470C 1591 4470 1603 4497 1613 4538C 1622 4575 1632 4615 1636 4628C 1641 4644 1638 4650 1627 4650C 1617 4650 1606 4625 1591 4572z" stroke="none" fill="#A8DA32" fill-rule="nonzero" />
        <path d="M1560 4440C 1560 4429 1567 4420 1575 4420C 1583 4420 1590 4429 1590 4440C 1590 4451 1583 4460 1575 4460C 1567 4460 1560 4451 1560 4440z" stroke="none" fill="#A8DA32" fill-rule="nonzero" />
        <path d="M1540 4320C 1540 4309 1547 4300 1555 4300C 1563 4300 1570 4309 1570 4320C 1570 4331 1563 4340 1555 4340C 1547 4340 1540 4331 1540 4320z" stroke="none" fill="#A8DA32" fill-rule="nonzero" />
        <path d="M1530 4235C 1530 4219 1536 4210 1545 4210C 1554 4210 1560 4219 1560 4235C 1560 4251 1554 4260 1545 4260C 1536 4260 1530 4251 1530 4235z" stroke="none" fill="#A8DA32" fill-rule="nonzero" />
        <path d="M1530 3915C 1530 3899 1536 3890 1545 3890C 1554 3890 1560 3899 1560 3915C 1560 3931 1554 3940 1545 3940C 1536 3940 1530 3931 1530 3915z" stroke="none" fill="#A8DA32" fill-rule="nonzero" />
        <path d="M1540 3850C 1540 3839 1547 3830 1555 3830C 1563 3830 1570 3839 1570 3850C 1570 3861 1563 3870 1555 3870C 1547 3870 1540 3861 1540 3850z" stroke="none" fill="#A8DA32" fill-rule="nonzero" />
        <path d="M1550 3808C 1550 3777 1585 3690 1598 3690C 1607 3690 1610 3697 1607 3708C 1604 3717 1596 3746 1589 3773C 1577 3814 1550 3840 1550 3808z" stroke="none" fill="#A8DA32" fill-rule="nonzero" />
        <path d="M5260 3775C 5260 3767 5269 3760 5280 3760C 5291 3760 5300 3767 5300 3775C 5300 3783 5291 3790 5280 3790C 5269 3790 5260 3783 5260 3775z" stroke="none" fill="#A8DA32" fill-rule="nonzero" />
        <path d="M6000 3758C 6000 3751 5997 3735 5994 3723C 5989 3706 5992 3700 6003 3700C 6011 3700 6020 3710 6024 3723C 6033 3758 6031 3770 6015 3770C 6007 3770 6000 3764 6000 3758z" stroke="none" fill="#A8DA32" fill-rule="nonzero" />
        <path d="M5270 3685C 5270 3677 5279 3670 5290 3670C 5301 3670 5310 3677 5310 3685C 5310 3693 5301 3700 5290 3700C 5279 3700 5270 3693 5270 3685z" stroke="none" fill="#A8DA32" fill-rule="nonzero" />
        <path d="M5320 3675C 5320 3667 5326 3660 5333 3660C 5339 3660 5362 3657 5383 3654C 5412 3649 5420 3651 5420 3662C 5420 3672 5406 3680 5383 3684C 5328 3693 5320 3692 5320 3675z" stroke="none" fill="#A8DA32" fill-rule="nonzero" />
        <path d="M5963 3675C 5960 3666 5960 3657 5963 3653C 5973 3643 6000 3659 6000 3675C 6000 3695 5971 3695 5963 3675z" stroke="none" fill="#A8DA32" fill-rule="nonzero" />
        <path d="M5430 3658C 5430 3650 5477 3634 5553 3616C 5620 3599 5718 3573 5770 3558C 5880 3526 5880 3526 5880 3543C 5880 3559 5772 3593 5583 3640C 5446 3674 5430 3675 5430 3658z" stroke="none" fill="#A8DA32" fill-rule="nonzero" />
        <path d="M5920 3640C 5920 3629 5927 3617 5935 3613C 5956 3605 5963 3614 5955 3639C 5947 3666 5920 3666 5920 3640z" stroke="none" fill="#A8DA32" fill-rule="nonzero" />
        <path d="M1620 3625C 1620 3617 1624 3610 1629 3610C 1634 3610 1640 3601 1643 3590C 1649 3567 1680 3563 1680 3585C 1680 3594 1673 3603 1665 3606C 1657 3610 1650 3618 1650 3626C 1650 3634 1643 3640 1635 3640C 1627 3640 1620 3633 1620 3625z" stroke="none" fill="#A8DA32" fill-rule="nonzero" />
        <path d="M3560 3605C 3560 3592 3614 3590 3985 3590C 4356 3590 4410 3592 4410 3605C 4410 3618 4356 3620 3985 3620C 3614 3620 3560 3618 3560 3605z" stroke="none" fill="#A8DA32" fill-rule="nonzero" />
        <path d="M3350 3595C 3350 3587 3359 3580 3370 3580C 3381 3580 3390 3587 3390 3595C 3390 3603 3381 3610 3370 3610C 3359 3610 3350 3603 3350 3595z" stroke="none" fill="#A8DA32" fill-rule="nonzero" />
        <path d="M1692 3544C 1694 3533 1703 3524 1714 3522C 1727 3519 1731 3523 1728 3536C 1726 3547 1717 3556 1706 3558C 1693 3561 1689 3557 1692 3544z" stroke="none" fill="#A8DA32" fill-rule="nonzero" />
        <path d="M3340 3510C 3340 3472 3344 3460 3355 3460C 3366 3460 3370 3472 3370 3510C 3370 3548 3366 3560 3355 3560C 3344 3560 3340 3548 3340 3510z" stroke="none" fill="#A8DA32" fill-rule="nonzero" />
        <path d="M4630 3505C 4630 3481 4635 3470 4645 3470C 4655 3470 4660 3481 4660 3505C 4660 3529 4655 3540 4645 3540C 4635 3540 4630 3529 4630 3505z" stroke="none" fill="#A8DA32" fill-rule="nonzero" />
        <path d="M1750 3506C 1750 3494 1778 3481 1803 3480C 1817 3480 1810 3508 1794 3514C 1768 3524 1750 3521 1750 3506z" stroke="none" fill="#A8DA32" fill-rule="nonzero" />
        <path d="M1820 3485C 1820 3475 1830 3470 1850 3470C 1870 3470 1880 3475 1880 3485C 1880 3495 1870 3500 1850 3500C 1830 3500 1820 3495 1820 3485z" stroke="none" fill="#A8DA32" fill-rule="nonzero" />
        <path d="M3330 3395C 3330 3371 3335 3360 3345 3360C 3355 3360 3360 3371 3360 3395C 3360 3419 3355 3430 3345 3430C 3335 3430 3330 3419 3330 3395z" stroke="none" fill="#A8DA32" fill-rule="nonzero" />
        <path d="M4640 3380C 4640 3360 4645 3350 4655 3350C 4665 3350 4670 3360 4670 3380C 4670 3400 4665 3410 4655 3410C 4645 3410 4640 3400 4640 3380z" stroke="none" fill="#A8DA32" fill-rule="nonzero" />
        <path d="M3320 3300C 3320 3280 3325 3270 3335 3270C 3345 3270 3350 3280 3350 3300C 3350 3320 3345 3330 3335 3330C 3325 3330 3320 3320 3320 3300z" stroke="none" fill="#A8DA32" fill-rule="nonzero" />
        <path d="M4650 3295C 4650 3279 4656 3270 4665 3270C 4674 3270 4680 3279 4680 3295C 4680 3311 4674 3320 4665 3320C 4656 3320 4650 3311 4650 3295z" stroke="none" fill="#A8DA32" fill-rule="nonzero" />
        <path d="M3310 3215C 3310 3199 3316 3190 3325 3190C 3334 3190 3340 3199 3340 3215C 3340 3231 3334 3240 3325 3240C 3316 3240 3310 3231 3310 3215z" stroke="none" fill="#A8DA32" fill-rule="nonzero" />
        <path d="M4660 3205C 4660 3189 4666 3180 4675 3180C 4684 3180 4690 3189 4690 3205C 4690 3221 4684 3230 4675 3230C 4666 3230 4660 3221 4660 3205z" stroke="none" fill="#A8DA32" fill-rule="nonzero" />
        <path d="M3300 3135C 3300 3119 3306 3110 3315 3110C 3324 3110 3330 3119 3330 3135C 3330 3151 3324 3160 3315 3160C 3306 3160 3300 3151 3300 3135z" stroke="none" fill="#A8DA32" fill-rule="nonzero" />
        <path d="M4670 3125C 4670 3109 4676 3100 4685 3100C 4694 3100 4700 3109 4700 3125C 4700 3141 4694 3150 4685 3150C 4676 3150 4670 3141 4670 3125z" stroke="none" fill="#A8DA32" fill-rule="nonzero" />
        <path d="M3290 3065C 3290 3049 3296 3040 3305 3040C 3314 3040 3320 3049 3320 3065C 3320 3081 3314 3090 3305 3090C 3296 3090 3290 3081 3290 3065z" stroke="none" fill="#A8DA32" fill-rule="nonzero" />
        <path d="M4680 3060C 4680 3049 4687 3040 4695 3040C 4703 3040 4710 3049 4710 3060C 4710 3071 4703 3080 4695 3080C 4687 3080 4680 3071 4680 3060z" stroke="none" fill="#A8DA32" fill-rule="nonzero" />
        <path d="M3280 3005C 3280 2989 3286 2980 3295 2980C 3304 2980 3310 2989 3310 3005C 3310 3021 3304 3030 3295 3030C 3286 3030 3280 3021 3280 3005z" stroke="none" fill="#A8DA32" fill-rule="nonzero" />
        <path d="M4690 3000C 4690 2989 4697 2980 4705 2980C 4713 2980 4720 2989 4720 3000C 4720 3011 4713 3020 4705 3020C 4697 3020 4690 3011 4690 3000z" stroke="none" fill="#A8DA32" fill-rule="nonzero" />
        <path d="M3270 2945C 3270 2929 3276 2920 3285 2920C 3294 2920 3300 2929 3300 2945C 3300 2961 3294 2970 3285 2970C 3276 2970 3270 2961 3270 2945z" stroke="none" fill="#A8DA32" fill-rule="nonzero" />
        <path d="M4700 2940C 4700 2929 4707 2920 4715 2920C 4723 2920 4730 2929 4730 2940C 4730 2951 4723 2960 4715 2960C 4707 2960 4700 2951 4700 2940z" stroke="none" fill="#A8DA32" fill-rule="nonzero" />
        <path d="M3260 2890C 3260 2879 3267 2870 3275 2870C 3283 2870 3290 2879 3290 2890C 3290 2901 3283 2910 3275 2910C 3267 2910 3260 2901 3260 2890z" stroke="none" fill="#A8DA32" fill-rule="nonzero" />
        <path d="M4710 2890C 4710 2879 4717 2870 4725 2870C 4733 2870 4740 2879 4740 2890C 4740 2901 4733 2910 4725 2910C 4717 2910 4710 2901 4710 2890z" stroke="none" fill="#A8DA32" fill-rule="nonzero" />
        <path d="M3245 2823C 3242 2802 3219 2726 3194 2653C 3147 2513 3143 2490 3163 2490C 3179 2491 3280 2799 3280 2848C 3280 2878 3252 2857 3245 2823z" stroke="none" fill="#A8DA32" fill-rule="nonzero" />
        <path d="M4720 2840C 4720 2829 4727 2820 4735 2820C 4743 2820 4750 2829 4750 2840C 4750 2851 4743 2860 4735 2860C 4727 2860 4720 2851 4720 2840z" stroke="none" fill="#A8DA32" fill-rule="nonzero" />
        <path d="M4750 2723C 4750 2697 4817 2530 4828 2530C 4845 2530 4844 2534 4808 2638C 4782 2713 4750 2759 4750 2723z" stroke="none" fill="#A8DA32" fill-rule="nonzero" />
        <path d="M3140 2450C 3140 2430 3145 2420 3155 2420C 3165 2420 3170 2430 3170 2450C 3170 2470 3165 2480 3155 2480C 3145 2480 3140 2470 3140 2450z" stroke="none" fill="#A8DA32" fill-rule="nonzero" />
        <path d="M4830 2445C 4830 2429 4836 2420 4845 2420C 4854 2420 4860 2429 4860 2445C 4860 2461 4854 2470 4845 2470C 4836 2470 4830 2461 4830 2445z" stroke="none" fill="#A8DA32" fill-rule="nonzero" />
        <path d="M3140 2245C 3140 2229 3146 2220 3155 2220C 3164 2220 3170 2229 3170 2245C 3170 2261 3164 2270 3155 2270C 3146 2270 3140 2261 3140 2245z" stroke="none" fill="#A8DA32" fill-rule="nonzero" />
        <path d="M4830 2250C 4830 2239 4837 2230 4845 2230C 4853 2230 4860 2239 4860 2250C 4860 2261 4853 2270 4845 2270C 4837 2270 4830 2261 4830 2250z" stroke="none" fill="#A8DA32" fill-rule="nonzero" />
        <path d="M4811 2173C 4804 2146 4796 2117 4793 2108C 4790 2097 4793 2090 4802 2090C 4815 2090 4850 2177 4850 2208C 4850 2240 4823 2214 4811 2173z" stroke="none" fill="#A8DA32" fill-rule="nonzero" />
        <path d="M3150 2197C 3150 2166 3183 2090 3196 2090C 3214 2090 3214 2092 3193 2157C 3177 2205 3150 2230 3150 2197z" stroke="none" fill="#A8DA32" fill-rule="nonzero" />
        <path d="M3200 2066C 3200 2058 3206 2045 3213 2038C 3220 2031 3229 2017 3233 2008C 3236 1998 3244 1990 3250 1990C 3255 1990 3260 1984 3260 1977C 3260 1954 3398 1840 3426 1840C 3448 1840 3443 1864 3418 1879C 3372 1907 3271 1995 3271 2008C 3270 2015 3264 2023 3256 2026C 3248 2029 3239 2042 3236 2056C 3229 2082 3200 2090 3200 2066z" stroke="none" fill="#A8DA32" fill-rule="nonzero" />
        <path d="M4628 1913C 4602 1885 4582 1870 4570 1870C 4565 1870 4560 1863 4560 1855C 4560 1847 4567 1840 4575 1840C 4583 1840 4590 1845 4590 1850C 4590 1856 4596 1860 4603 1860C 4621 1860 4670 1902 4670 1918C 4670 1936 4647 1933 4628 1913z" stroke="none" fill="#A8DA32" fill-rule="nonzero" />
        <path d="M4503 1838C 4480 1827 4471 1800 4490 1800C 4510 1800 4550 1824 4550 1837C 4550 1852 4534 1853 4503 1838z" stroke="none" fill="#A8DA32" fill-rule="nonzero" />
        <path d="M3510 1805C 3510 1793 3619 1750 3651 1750C 3685 1750 3648 1780 3592 1798C 3511 1824 3510 1824 3510 1805z" stroke="none" fill="#A8DA32" fill-rule="nonzero" />
        <path d="M3710 1745C 3710 1737 3719 1730 3730 1730C 3741 1730 3750 1737 3750 1745C 3750 1753 3741 1760 3730 1760C 3719 1760 3710 1753 3710 1745z" stroke="none" fill="#A8DA32" fill-rule="nonzero" />
        <path d="M3770 1735C 3770 1726 3779 1720 3795 1720C 3811 1720 3820 1726 3820 1735C 3820 1744 3811 1750 3795 1750C 3779 1750 3770 1744 3770 1735z" stroke="none" fill="#A8DA32" fill-rule="nonzero" />
        <path d="M4180 1735C 4180 1727 4189 1720 4200 1720C 4211 1720 4220 1727 4220 1735C 4220 1743 4211 1750 4200 1750C 4189 1750 4180 1743 4180 1735z" stroke="none" fill="#A8DA32" fill-rule="nonzero" />
        <path d="M3860 1725C 3860 1716 3869 1710 3885 1710C 3901 1710 3910 1716 3910 1725C 3910 1734 3901 1740 3885 1740C 3869 1740 3860 1734 3860 1725z" stroke="none" fill="#A8DA32" fill-rule="nonzero" />
        <path d="M4090 1725C 4090 1717 4099 1710 4110 1710C 4121 1710 4130 1717 4130 1725C 4130 1733 4121 1740 4110 1740C 4099 1740 4090 1733 4090 1725z" stroke="none" fill="#A8DA32" fill-rule="nonzero" />
	</g>
	<g transform="matrix(0.1 0 -0 -0.1 0 800)">
        <path d="M0 4000C 0 0 0 0 4000 0C 8000 0 8000 0 8000 4000C 8000 8000 8000 8000 4000 8000C 0 8000 0 8000 0 4000zM4318 7850C 4574 7824 4723 7799 4910 7754C 7376 7153 8606 4368 7387 2145C 6151 -110 3084 -548 1270 1270C -186 2730 -247 5027 1130 6585C 1243 6713 1431 6890 1576 7006C 1631 7049 1677 7087 1680 7090C 1687 7097 1725 7124 1841 7202C 2275 7497 2763 7697 3300 7799C 3401 7818 3497 7831 3665 7849C 3780 7861 4205 7862 4318 7850z" stroke="none" fill="#FCFAF9" fill-rule="nonzero" />
        <path d="M4662 6094C 4212 5702 4495 4930 5089 4930C 5432 4930 5750 5227 5750 5548C 5750 5570 5676 5645 5662 5636C 5657 5633 5647 5637 5640 5645C 5633 5653 5631 5660 5635 5660C 5639 5660 5637 5667 5630 5675C 5623 5684 5611 5689 5603 5686C 5595 5683 5591 5684 5594 5689C 5601 5700 5576 5721 5559 5718C 5552 5716 5546 5722 5545 5730C 5545 5738 5536 5745 5525 5745C 5514 5745 5505 5752 5505 5760C 5505 5768 5497 5774 5488 5774C 5478 5773 5472 5777 5473 5784C 5474 5790 5467 5794 5458 5794C 5448 5793 5442 5797 5443 5804C 5444 5810 5437 5814 5428 5814C 5418 5813 5412 5817 5413 5824C 5414 5830 5407 5834 5398 5834C 5388 5833 5382 5837 5383 5844C 5384 5850 5377 5854 5368 5854C 5358 5853 5353 5857 5357 5863C 5361 5869 5357 5871 5347 5867C 5337 5863 5331 5865 5333 5873C 5334 5880 5327 5884 5318 5884C 5308 5883 5303 5887 5307 5893C 5311 5899 5307 5901 5296 5897C 5286 5893 5281 5894 5285 5900C 5292 5912 5253 5933 5238 5924C 5231 5919 5230 5921 5235 5930C 5241 5940 5239 5942 5226 5937C 5217 5933 5211 5934 5214 5939C 5221 5950 5171 5972 5158 5964C 5151 5959 5150 5962 5155 5970C 5161 5980 5159 5982 5147 5977C 5137 5973 5131 5975 5133 5983C 5134 5990 5125 5995 5113 5994C 5101 5994 5093 5997 5095 6001C 5102 6012 5072 6020 5053 6013C 5043 6009 5039 6011 5043 6017C 5051 6030 5023 6043 5008 6033C 5002 6030 5000 6032 5004 6038C 5012 6051 4975 6064 4959 6054C 4951 6049 4950 6051 4955 6060C 4961 6070 4958 6072 4942 6068C 4930 6064 4922 6066 4925 6070C 4932 6082 4893 6093 4879 6084C 4871 6079 4870 6081 4875 6090C 4881 6100 4878 6102 4862 6098C 4848 6094 4842 6096 4847 6103C 4851 6109 4845 6111 4832 6108C 4818 6104 4812 6106 4817 6113C 4821 6119 4815 6121 4802 6118C 4788 6114 4782 6116 4786 6122C 4791 6129 4784 6131 4766 6126C 4748 6122 4741 6123 4745 6130C 4762 6157 4709 6134 4662 6094z" stroke="none" fill="#FCFAF9" fill-rule="nonzero" />
        <path d="M2873 5585C 2460 5473 2314 4934 2613 4623C 2988 4232 3621 4510 3598 5055C 3582 5427 3233 5682 2873 5585z" stroke="none" fill="#FCFAF9" fill-rule="nonzero" />
        <path d="M1645 4739C 1641 4729 1642 4715 1646 4709C 1651 4701 1649 4700 1640 4705C 1630 4711 1628 4708 1632 4692C 1636 4678 1634 4672 1628 4676C 1621 4681 1619 4674 1622 4657C 1625 4641 1623 4633 1617 4637C 1611 4641 1609 4635 1612 4622C 1616 4608 1614 4602 1608 4606C 1601 4611 1599 4604 1604 4586C 1609 4566 1608 4560 1599 4566C 1590 4571 1589 4565 1594 4546C 1599 4526 1598 4520 1589 4526C 1580 4531 1579 4525 1584 4506C 1589 4486 1588 4480 1579 4486C 1570 4491 1569 4485 1573 4461C 1578 4439 1576 4431 1569 4436C 1561 4441 1559 4433 1562 4412C 1565 4393 1562 4383 1557 4387C 1551 4391 1549 4377 1553 4352C 1556 4324 1555 4312 1547 4317C 1540 4321 1539 4307 1543 4271C 1547 4239 1545 4222 1540 4225C 1534 4229 1530 4172 1530 4075C 1530 3971 1533 3921 1540 3925C 1547 3929 1548 3917 1544 3889C 1539 3859 1540 3849 1548 3854C 1556 3859 1558 3852 1553 3829C 1549 3805 1550 3799 1559 3804C 1568 3810 1569 3804 1564 3784C 1559 3766 1561 3759 1568 3764C 1574 3768 1576 3762 1572 3748C 1569 3735 1571 3729 1577 3733C 1584 3738 1586 3732 1582 3718C 1579 3704 1581 3699 1588 3704C 1596 3708 1598 3706 1594 3696C 1587 3679 1617 3617 1629 3625C 1634 3627 1637 3622 1636 3613C 1636 3603 1642 3595 1650 3595C 1658 3595 1664 3587 1662 3579C 1659 3560 1682 3538 1701 3542C 1708 3544 1714 3539 1715 3532C 1715 3514 1742 3500 1764 3506C 1775 3510 1780 3508 1776 3502C 1767 3487 1798 3479 1838 3486C 1863 3491 1871 3490 1866 3481C 1861 3474 1869 3470 1890 3470C 1908 3470 1919 3474 1915 3480C 1912 3485 1915 3488 1922 3485C 1929 3483 1949 3500 1967 3523C 2254 3907 2161 4452 1764 4715C 1697 4760 1654 4768 1645 4739z" stroke="none" fill="#FCFAF9" fill-rule="nonzero" />
        <path d="M4233 4621C 3951 4516 3919 4081 4184 3943C 4281 3892 4521 3926 4606 4002C 4709 4094 4724 4128 4724 4270C 4726 4538 4481 4713 4233 4621z" stroke="none" fill="#FCFAF9" fill-rule="nonzero" />
        <path d="M5517 4291C 5303 4221 5212 4046 5254 3790C 5258 3765 5263 3731 5266 3713C 5270 3688 5275 3682 5287 3687C 5299 3692 5301 3690 5295 3680C 5289 3670 5295 3669 5325 3674C 5352 3679 5360 3678 5355 3670C 5349 3661 5356 3660 5380 3665C 5405 3670 5411 3669 5405 3660C 5399 3650 5406 3649 5435 3654C 5463 3660 5470 3658 5464 3649C 5459 3640 5464 3639 5484 3644C 5504 3649 5510 3648 5504 3639C 5499 3630 5505 3629 5524 3634C 5543 3639 5550 3637 5545 3630C 5540 3623 5547 3621 5566 3626C 5585 3631 5591 3630 5586 3622C 5581 3614 5588 3612 5611 3617C 5633 3621 5641 3620 5637 3612C 5632 3606 5638 3604 5652 3608C 5668 3612 5671 3610 5665 3600C 5659 3590 5663 3589 5684 3594C 5704 3599 5710 3598 5704 3589C 5699 3580 5705 3579 5724 3584C 5744 3589 5750 3587 5745 3579C 5740 3571 5744 3570 5760 3575C 5776 3580 5780 3579 5775 3570C 5770 3561 5774 3560 5790 3565C 5807 3570 5811 3569 5805 3559C 5799 3550 5803 3548 5818 3552C 5832 3556 5838 3554 5833 3547C 5829 3541 5835 3539 5848 3542C 5860 3546 5868 3544 5864 3539C 5846 3510 5896 3538 5939 3581C 6256 3896 5938 4430 5517 4291z" stroke="none" fill="#FCFAF9" fill-rule="nonzero" />
	</g>
	<g transform="matrix(0.1 0 -0 -0.1 0 800)">
        <path d="M3576 6209C 2937 6113 2343 5761 1936 5235C 1889 5175 1847 5121 1842 5115C 1782 5041 1682 4856 1665 4789C 1659 4766 1664 4760 1707 4735C 2165 4468 2258 3913 1917 3482C 1901 3462 1962 3475 2105 3521C 2220 3559 2336 3593 2410 3610C 2518 3635 2655 3660 2686 3660C 2706 3660 2745 3666 2773 3674C 2874 3701 2962 3710 3405 3740C 3621 3755 3837 3753 3847 3737C 3853 3727 3940 3726 4275 3730C 4506 3733 4718 3732 4745 3727C 4773 3722 4865 3715 4950 3710C 5035 3706 5142 3696 5188 3690C 5289 3675 5284 3668 5264 3781C 5233 3964 5259 4077 5355 4174C 5684 4508 6221 4118 6009 3699C 5993 3667 5972 3635 5962 3628C 5951 3621 5942 3611 5942 3605C 5942 3600 5933 3593 5923 3589C 5913 3585 5909 3581 5914 3581C 5918 3580 5912 3572 5900 3562C 5819 3496 6145 3443 6255 3504C 6579 3683 6533 4571 6172 5090C 6057 5254 5780 5570 5750 5570C 5747 5570 5736 5528 5727 5478C 5641 5015 5121 4793 4736 5053C 4390 5289 4356 5816 4670 6081C 4698 6104 4720 6129 4720 6135C 4720 6153 4534 6194 4337 6220C 4199 6238 3724 6231 3576 6209zM3186 5569C 3601 5443 3729 4926 3421 4620C 3062 4264 2463 4522 2468 5030C 2471 5406 2832 5677 3186 5569zM4528 4590C 4835 4426 4749 3957 4408 3932C 4255 3921 4201 3935 4129 4008C 3833 4310 4160 4787 4528 4590z" stroke="none" fill="#EF1A19" fill-rule="nonzero" />
        <path d="M4682 1957C 4657 1931 4653 1910 4673 1910C 4689 1910 4730 1952 4730 1968C 4730 1988 4705 1982 4682 1957z" stroke="none" fill="#EF1A19" fill-rule="nonzero" />
        <path d="M4368 1783C 4358 1781 4350 1772 4350 1763C 4350 1752 4356 1749 4373 1754C 4385 1757 4398 1760 4403 1760C 4407 1760 4410 1767 4410 1775C 4410 1790 4401 1792 4368 1783z" stroke="none" fill="#EF1A19" fill-rule="nonzero" />
	</g>
	<g transform="matrix(0.1 0 -0 -0.1 0 800)">
        <path d="M3763 6370C 2941 6316 2178 5859 1683 5125C 1383 4680 1295 3897 1505 3550C 1636 3335 1842 3281 2145 3382C 2447 3482 2800 3554 3109 3576C 3203 3583 3203 3583 3197 3479C 3180 3212 3113 2818 3060 2688C 2790 2012 3334 1477 4191 1579C 4849 1656 5138 2090 4935 2695C 4875 2876 4812 3254 4798 3520C 4794 3595 4772 3591 5015 3564C 5320 3531 5584 3474 5860 3383C 6337 3227 6610 3475 6610 4067C 6610 4687 6361 5210 5846 5671C 5257 6197 4582 6423 3763 6370zM4327 6210C 4504 6187 4710 6143 4710 6129C 4710 6124 4717 6123 4725 6126C 4756 6138 5021 6037 5190 5948C 5708 5678 6186 5171 6345 4726C 6586 4048 6439 3416 6057 3490C 5980 3505 5901 3529 5894 3541C 5891 3546 5885 3548 5881 3546C 5877 3543 5851 3548 5824 3556C 5707 3592 5464 3650 5330 3674C 5250 3688 5160 3704 5129 3710C 5099 3715 5029 3720 4974 3720C 4920 3720 4835 3726 4785 3734C 4716 3744 4597 3745 4280 3741C 3953 3736 3863 3738 3857 3747C 3833 3786 2954 3735 2763 3684C 2735 3676 2696 3670 2676 3670C 2645 3670 2508 3645 2400 3620C 2320 3602 2208 3568 2090 3529C 1793 3428 1645 3503 1564 3795C 1525 3935 1536 4279 1586 4500C 1607 4593 1661 4760 1669 4756C 1672 4754 1676 4762 1676 4775C 1679 4822 1787 5025 1852 5105C 1857 5111 1899 5165 1946 5225C 2353 5751 2947 6103 3586 6199C 3734 6221 4190 6228 4327 6210zM4395 3599C 4390 3592 4427 3590 4512 3592C 4635 3595 4635 3595 4631 3556C 4629 3529 4631 3519 4639 3524C 4647 3529 4648 3512 4644 3459C 4638 3404 4640 3389 4649 3394C 4658 3400 4659 3389 4654 3349C 4649 3312 4650 3299 4658 3304C 4666 3309 4667 3295 4663 3259C 4659 3221 4660 3209 4668 3214C 4677 3219 4678 3208 4673 3174C 4669 3139 4670 3129 4679 3134C 4687 3140 4689 3130 4684 3099C 4679 3070 4680 3059 4688 3064C 4695 3068 4697 3059 4693 3034C 4689 3008 4690 2999 4698 3004C 4705 3008 4707 2999 4703 2974C 4699 2947 4700 2939 4708 2944C 4716 2949 4718 2942 4713 2919C 4709 2896 4710 2889 4718 2894C 4726 2899 4728 2892 4723 2869C 4719 2846 4720 2839 4728 2844C 4736 2849 4738 2842 4733 2819C 4729 2798 4731 2789 4737 2793C 4743 2797 4745 2789 4742 2773C 4739 2757 4741 2749 4747 2753C 4753 2757 4755 2749 4752 2733C 4749 2716 4751 2709 4758 2714C 4764 2718 4766 2712 4762 2698C 4759 2685 4761 2679 4767 2683C 4774 2688 4776 2682 4772 2668C 4769 2654 4771 2649 4778 2654C 4786 2659 4788 2655 4783 2644C 4779 2633 4780 2629 4787 2633C 4794 2638 4796 2632 4792 2618C 4789 2605 4791 2599 4797 2603C 4804 2608 4806 2602 4802 2588C 4799 2575 4801 2569 4807 2573C 4814 2578 4816 2572 4812 2558C 4809 2545 4811 2539 4817 2543C 4823 2547 4825 2539 4822 2523C 4819 2508 4821 2499 4827 2503C 4832 2507 4835 2496 4832 2478C 4829 2461 4831 2450 4836 2453C 4841 2456 4845 2410 4845 2350C 4845 2288 4841 2244 4836 2248C 4831 2251 4830 2239 4833 2221C 4838 2198 4836 2191 4828 2196C 4821 2201 4819 2196 4822 2182C 4826 2168 4824 2162 4817 2167C 4811 2171 4809 2165 4812 2152C 4816 2138 4814 2132 4807 2137C 4801 2141 4799 2135 4802 2122C 4806 2110 4805 2102 4800 2105C 4789 2112 4778 2081 4787 2068C 4790 2061 4788 2060 4782 2064C 4769 2072 4746 2034 4755 2020C 4759 2014 4756 2011 4748 2012C 4741 2014 4736 2009 4738 2002C 4739 1996 4734 1991 4728 1992C 4721 1994 4715 1988 4715 1978C 4715 1957 4680 1919 4668 1926C 4656 1934 4619 1900 4626 1889C 4629 1884 4623 1883 4614 1887C 4603 1891 4599 1889 4603 1883C 4607 1877 4602 1873 4592 1874C 4583 1874 4576 1869 4578 1862C 4579 1854 4576 1851 4571 1854C 4558 1862 4529 1850 4536 1839C 4539 1834 4533 1833 4524 1837C 4512 1841 4509 1840 4514 1832C 4519 1824 4515 1822 4504 1827C 4491 1832 4489 1830 4495 1820C 4500 1812 4499 1809 4492 1813C 4479 1822 4448 1811 4455 1800C 4457 1796 4448 1795 4433 1798C 4415 1801 4409 1799 4414 1792C 4419 1784 4415 1782 4404 1787C 4393 1791 4389 1790 4393 1783C 4398 1776 4392 1774 4378 1778C 4366 1781 4359 1779 4363 1773C 4367 1768 4357 1765 4338 1768C 4320 1771 4310 1769 4313 1763C 4317 1758 4306 1755 4288 1758C 4270 1761 4260 1759 4263 1753C 4267 1748 4256 1745 4238 1748C 4217 1751 4209 1749 4214 1742C 4219 1734 4205 1733 4169 1737C 4139 1741 4119 1739 4122 1734C 4126 1729 4074 1725 4000 1725C 3926 1725 3874 1729 3878 1734C 3881 1739 3861 1741 3831 1737C 3794 1733 3781 1734 3786 1742C 3791 1750 3782 1751 3756 1747C 3731 1743 3722 1745 3726 1752C 3731 1759 3724 1761 3707 1758C 3691 1755 3683 1757 3687 1763C 3691 1769 3682 1771 3661 1767C 3639 1762 3631 1764 3636 1771C 3640 1779 3635 1780 3620 1775C 3604 1770 3600 1771 3605 1780C 3610 1789 3606 1790 3590 1785C 3574 1780 3570 1781 3575 1790C 3580 1799 3576 1800 3560 1795C 3543 1790 3539 1791 3545 1801C 3551 1810 3548 1812 3536 1807C 3527 1803 3521 1804 3524 1808C 3531 1820 3441 1862 3428 1854C 3421 1849 3420 1852 3425 1860C 3431 1870 3429 1872 3417 1867C 3408 1864 3398 1866 3394 1872C 3389 1879 3392 1880 3400 1875C 3409 1869 3411 1871 3406 1879C 3401 1886 3392 1889 3385 1886C 3378 1884 3364 1891 3353 1903C 3335 1925 3335 1925 3360 1905C 3385 1885 3385 1885 3366 1908C 3355 1920 3341 1929 3334 1926C 3319 1920 3275 1966 3275 1988C 3275 1997 3268 2005 3260 2005C 3252 2005 3245 2014 3245 2025C 3245 2036 3240 2044 3233 2043C 3225 2041 3223 2047 3227 2057C 3232 2069 3230 2071 3220 2065C 3212 2060 3209 2061 3213 2068C 3222 2082 3210 2111 3199 2104C 3194 2101 3193 2107 3197 2116C 3202 2128 3200 2131 3191 2125C 3181 2119 3180 2123 3185 2140C 3190 2154 3188 2160 3182 2156C 3176 2152 3174 2158 3178 2172C 3181 2186 3179 2191 3172 2186C 3164 2181 3162 2188 3167 2211C 3170 2229 3169 2241 3164 2238C 3159 2234 3155 2282 3155 2350C 3155 2418 3159 2466 3164 2462C 3169 2459 3170 2471 3167 2489C 3162 2512 3164 2519 3172 2514C 3180 2509 3181 2515 3176 2534C 3171 2554 3173 2560 3181 2555C 3189 2550 3190 2554 3185 2570C 3180 2586 3181 2590 3190 2585C 3199 2580 3200 2584 3195 2600C 3191 2614 3192 2620 3198 2616C 3211 2608 3221 2635 3213 2657C 3208 2668 3210 2671 3219 2665C 3229 2659 3230 2663 3225 2680C 3220 2696 3221 2700 3230 2695C 3239 2690 3240 2694 3235 2710C 3230 2727 3231 2730 3240 2725C 3250 2719 3251 2724 3246 2744C 3241 2764 3242 2770 3251 2764C 3260 2759 3261 2765 3256 2784C 3251 2804 3252 2810 3261 2804C 3270 2799 3271 2805 3266 2824C 3261 2844 3262 2850 3271 2844C 3280 2839 3281 2845 3277 2869C 3272 2891 3274 2899 3282 2894C 3290 2889 3291 2898 3286 2925C 3281 2952 3282 2960 3291 2955C 3300 2949 3301 2957 3296 2985C 3291 3012 3292 3020 3301 3015C 3310 3009 3311 3017 3306 3045C 3300 3073 3302 3080 3311 3074C 3320 3069 3321 3077 3316 3109C 3311 3140 3313 3150 3321 3144C 3330 3139 3331 3149 3327 3184C 3322 3218 3323 3229 3332 3224C 3340 3219 3341 3231 3336 3269C 3331 3308 3332 3320 3341 3314C 3350 3309 3351 3322 3345 3365C 3340 3407 3341 3420 3350 3415C 3358 3410 3360 3427 3354 3480C 3349 3538 3350 3551 3360 3545C 3369 3539 3372 3544 3368 3566C 3364 3595 3364 3595 3473 3592C 3550 3589 3580 3591 3576 3599C 3571 3607 3687 3610 3985 3610C 4275 3610 4399 3607 4395 3599z" stroke="none" fill="#201F17" fill-rule="nonzero" />
	</g>
	<g transform="matrix(0.1 0 -0 -0.1 0 800)">
        <path d="M4686 4113C 4655 4015 4506 3935 4355 3935C 4214 3936 4199 3940 4132 4003C 4076 4055 4076 4055 4120 4002C 4179 3931 4184 3929 4321 3923C 4465 3916 4530 3935 4610 4008C 4661 4054 4707 4117 4697 4126C 4694 4129 4689 4123 4686 4113z" stroke="none" fill="#FABB2A" fill-rule="nonzero" />
        <path d="M2123 4025C 2123 3987 2125 3972 2127 3993C 2129 4013 2129 4045 2127 4063C 2125 4080 2123 4064 2123 4025z" stroke="none" fill="#FABB2A" fill-rule="nonzero" />
        <path d="M5245 3880C 5247 3822 5253 3764 5259 3750C 5271 3724 5269 3752 5250 3915C 5243 3979 5242 3976 5245 3880z" stroke="none" fill="#FABB2A" fill-rule="nonzero" />
        <path d="M3374 3592C 3368 3588 3360 3542 3356 3490C 3332 3164 3272 2823 3203 2621C 3038 2140 3270 1807 3822 1734C 4549 1638 4997 2038 4801 2608C 4724 2832 4675 3109 4642 3505C 4635 3595 4635 3595 4010 3597C 3666 3599 3380 3596 3374 3592z" stroke="none" fill="#FABB2A" fill-rule="nonzero" />
	</g>
</g>
</svg>