<?xml version="1.0" encoding="UTF-8" standalone="no"?><svg xmlns:dc="http://purl.org/dc/elements/1.1/" xmlns:cc="http://creativecommons.org/ns#" xmlns:rdf="http://www.w3.org/1999/02/22-rdf-syntax-ns#" xmlns:svg="http://www.w3.org/2000/svg" xmlns="http://www.w3.org/2000/svg"  viewBox="0 0 512.000000 512.000000" style="enable-background:new 0 0 45 45;background-color:white;" preserveAspectRatio="xMidYMid meet" xml:space="preserve" version="1.1" id="svg2"><metadata id="metadata8"><rdf:RDF><cc:Work rdf:about=""><dc:format>image/svg+xml</dc:format><dc:type rdf:resource="http://purl.org/dc/dcmitype/StillImage"/></cc:Work></rdf:RDF></metadata>
<rect width="100%" height="100%" fill="white"/>
<g transform="translate(0.000000,525.000000) scale(0.100000,-0.100000)"
fill="#000000" stroke="none">
<path d="M2858 4961 l-156 -319 -43 -6 c-24 -3 -100 -10 -169 -16 -245 -21
-436 -64 -650 -147 -686 -264 -1217 -897 -1370 -1634 -47 -227 -47 -695 0
-922 55 -265 206 -621 337 -795 l25 -33 17 23 c9 13 53 92 97 176 l82 154 -53
111 c-62 129 -126 317 -156 456 -26 124 -37 448 -20 601 49 434 247 824 577
1140 263 251 555 406 899 475 110 22 248 35 259 24 2 -2 -169 -357 -381 -789
-1132 -2311 -1634 -3343 -1628 -3348 4 -4 192 -7 418 -7 l411 0 332 750 332
750 508 0 509 0 5 -148 5 -148 331 253 c182 139 348 268 369 285 l39 33 -34
36 c-19 20 -179 172 -355 336 l-320 300 -6 -133 c-4 -74 -7 -137 -8 -141 -1
-9 -696 -11 -728 -2 -13 4 -23 12 -23 19 0 8 65 168 144 357 333 798 590 1404
598 1413 4 5 8 -288 8 -652 l0 -661 158 -149 c86 -82 225 -212 307 -288 l150
-139 6 95 c4 52 7 437 8 856 0 419 4 768 7 777 3 9 11 16 16 16 20 0 136 -98
238 -200 263 -262 426 -558 516 -935 22 -93 27 -141 31 -316 6 -236 -6 -399
-42 -539 -170 -678 -679 -1195 -1356 -1376 -243 -65 -573 -72 -839 -18 -96 20
-280 82 -395 133 -70 32 -93 38 -102 28 -12 -13 -109 -205 -137 -270 l-16 -38
83 -38 c186 -87 384 -150 567 -182 149 -27 464 -37 622 -20 366 40 693 159
993 362 507 343 832 841 955 1464 28 138 38 479 21 660 -65 667 -463 1302
-1040 1659 l-111 68 0 459 0 459 -343 0 -343 0 -156 -319z"/>
<path d="M3428 1432 c-134 -115 -272 -236 -308 -270 l-65 -61 313 -1 312 0 0
270 c0 149 -2 270 -5 270 -3 0 -114 -94 -247 -208z"/>
</g>

</svg>
