<svg id="svg" version="1.1" xmlns="http://www.w3.org/2000/svg" xmlns:xlink="http://www.w3.org/1999/xlink" width="400" height="400" viewBox="0, 0, 400,400"><g id="svgg"><path id="path0" d="M0.000 200.000 L 0.000 400.000 200.000 400.000 L 400.000 400.000 400.000 200.000 L 400.000 0.000 200.000 0.000 L 0.000 0.000 0.000 200.000 M231.775 36.761 C 247.967 62.268,247.697 61.821,246.707 61.534 C 246.352 61.431,233.831 58.182,218.882 54.313 L 191.702 47.279 191.712 46.247 C 191.727 44.774,194.259 23.069,194.435 22.908 C 194.629 22.730,216.207 12.895,216.433 12.881 C 216.530 12.875,223.434 23.621,231.775 36.761 M140.444 25.585 C 147.276 28.920,148.549 36.752,143.468 44.193 C 139.395 50.158,141.099 53.680,148.297 54.175 C 151.523 54.396,152.413 55.030,152.413 57.108 C 152.413 61.119,143.893 60.783,139.110 56.583 C 134.556 52.585,134.484 46.945,138.912 40.934 C 143.766 34.344,139.383 27.794,132.163 30.847 C 131.198 31.255,130.928 31.250,130.139 30.807 C 124.498 27.641,134.388 22.629,140.444 25.585 M302.456 53.935 C 313.446 57.275,312.077 72.529,300.467 76.091 C 295.480 77.621,294.666 78.377,294.666 81.473 C 294.666 83.526,295.422 85.058,297.156 86.518 C 300.029 88.938,300.085 89.009,300.085 90.266 C 300.085 95.390,293.114 92.720,290.185 86.473 C 286.986 79.651,289.941 73.537,297.594 71.145 C 301.357 69.969,302.635 69.263,303.458 67.909 C 305.599 64.386,303.922 60.253,299.876 59.077 C 297.216 58.303,296.270 56.452,297.581 54.581 C 298.556 53.189,299.563 53.056,302.456 53.935 M70.249 57.266 C 71.075 58.247,71.126 58.522,71.126 61.995 C 71.126 66.147,71.025 65.982,74.005 66.688 C 79.624 68.018,80.268 68.517,80.273 71.533 C 80.275 72.334,80.372 74.003,80.489 75.243 L 80.702 77.498 84.251 78.439 C 89.401 79.804,89.664 80.195,89.730 86.568 L 89.754 88.970 93.209 89.876 C 98.044 91.143,99.358 92.230,98.567 94.309 C 97.778 96.384,96.973 96.463,91.244 95.023 C 84.495 93.327,84.563 93.393,84.335 88.232 C 84.134 83.669,84.492 84.132,80.383 83.109 C 75.668 81.934,75.369 81.563,75.049 76.518 C 74.759 71.933,75.333 72.641,70.981 71.502 C 65.959 70.188,65.779 69.862,65.732 62.003 C 65.709 58.126,65.766 57.729,66.443 57.007 C 67.537 55.843,69.144 55.952,70.249 57.266 M359.569 99.227 C 364.986 100.685,365.384 100.909,365.660 102.648 C 366.090 105.351,363.944 106.106,359.342 104.872 C 357.512 104.381,355.858 103.980,355.666 103.980 C 355.475 103.980,354.518 105.290,353.540 106.891 C 350.729 111.491,350.464 111.600,345.410 110.246 C 343.673 109.781,342.100 109.403,341.914 109.405 C 341.727 109.408,340.749 110.789,339.739 112.474 C 337.040 116.980,336.682 117.117,331.416 115.660 C 329.741 115.197,328.272 114.818,328.152 114.818 C 328.031 114.818,327.052 116.274,325.975 118.055 C 323.863 121.544,323.434 121.931,321.667 121.931 C 318.430 121.931,318.517 119.618,321.965 114.065 C 325.459 108.436,325.574 108.380,330.748 109.787 C 332.784 110.340,334.493 110.670,334.547 110.519 C 334.600 110.369,335.450 108.950,336.435 107.367 C 339.205 102.915,339.769 102.804,347.540 105.183 C 347.941 105.306,348.602 104.486,350.030 102.094 C 351.472 99.677,352.248 98.719,353.040 98.374 C 354.433 97.768,353.882 97.696,359.569 99.227 M25.160 145.495 C 29.801 147.085,32.006 150.911,31.758 156.943 C 31.562 161.699,31.791 162.979,33.080 164.336 C 35.778 167.174,40.197 166.967,42.222 163.907 C 43.713 161.655,45.974 161.429,47.268 163.403 C 47.990 164.505,47.946 164.598,45.066 168.092 C 40.796 173.273,34.867 173.542,29.783 168.786 C 26.661 165.867,26.252 164.665,26.234 158.385 L 26.218 153.011 24.991 151.886 C 22.830 149.905,19.682 149.917,16.576 151.918 C 14.355 153.349,13.453 153.386,12.167 152.101 C 8.203 148.136,18.133 143.087,25.160 145.495 M138.506 153.633 C 144.531 155.624,146.835 159.234,146.808 166.638 L 146.790 171.211 141.838 192.549 C 136.125 217.166,135.499 219.199,132.085 224.217 C 123.681 236.571,103.211 238.134,98.037 226.816 C 96.289 222.992,96.196 218.567,97.716 211.516 C 103.111 186.482,107.426 169.209,109.137 165.794 C 114.614 154.862,126.869 149.787,138.506 153.633 M229.080 152.911 C 241.079 155.050,242.851 161.956,237.056 183.997 L 236.722 185.267 228.776 185.267 C 222.131 185.267,220.830 185.188,220.830 184.785 C 220.830 184.520,221.446 181.738,222.199 178.604 C 224.523 168.924,224.367 167.448,221.021 167.518 C 219.181 167.556,218.018 168.447,217.082 170.533 C 216.126 172.667,206.604 214.295,206.604 216.342 C 206.605 220.516,210.915 220.573,213.034 216.427 C 213.486 215.542,217.443 199.871,217.443 198.965 C 217.443 198.882,221.101 198.815,225.572 198.815 C 230.840 198.815,233.700 198.935,233.700 199.158 C 233.700 200.255,229.751 216.330,228.921 218.609 C 225.309 228.537,218.102 233.631,206.796 234.248 C 195.933 234.840,190.185 229.842,190.198 219.814 L 190.203 215.241 195.023 194.503 C 200.013 173.033,200.827 170.213,203.490 165.159 C 208.644 155.380,217.948 150.927,229.080 152.911 M275.045 152.894 C 283.824 154.461,287.695 161.042,285.830 171.233 C 285.317 174.038,276.847 210.955,276.007 214.050 C 273.093 224.780,265.741 232.220,256.393 233.898 C 242.630 236.369,234.378 229.291,236.065 216.461 C 236.545 212.814,245.640 173.106,246.764 169.757 C 251.034 157.022,261.892 150.548,275.045 152.894 M105.111 153.345 C 105.196 153.484,104.479 157.028,103.518 161.219 L 101.769 168.840 93.730 168.931 C 89.308 168.981,85.688 169.133,85.686 169.269 C 85.684 169.406,85.075 172.085,84.332 175.222 C 83.589 178.360,82.981 181.065,82.981 181.234 C 82.981 181.408,86.219 181.541,90.469 181.541 L 97.957 181.541 97.780 182.303 C 97.682 182.722,96.877 186.228,95.989 190.093 L 94.375 197.121 86.821 197.121 L 79.268 197.121 79.086 197.883 C 78.985 198.302,77.149 206.266,75.005 215.580 C 72.861 224.894,71.025 232.782,70.925 233.108 C 70.758 233.649,54.530 234.109,54.530 233.573 C 54.530 233.325,72.828 153.932,72.982 153.514 C 73.156 153.038,104.821 152.871,105.111 153.345 M173.738 154.530 C 173.731 155.322,173.295 161.304,172.768 167.824 C 172.241 174.344,171.829 179.705,171.853 179.738 C 171.876 179.771,173.399 175.656,175.238 170.594 C 177.076 165.531,179.262 159.522,180.097 157.240 L 181.613 153.091 189.537 153.091 C 193.894 153.091,197.460 153.153,197.460 153.228 C 197.460 153.304,193.966 161.812,189.696 172.135 L 181.931 190.905 181.368 211.879 C 181.059 223.415,180.747 233.044,180.676 233.277 C 180.531 233.751,164.267 233.919,164.268 233.446 C 164.269 233.307,164.729 226.502,165.292 218.325 C 165.854 210.148,166.273 203.418,166.222 203.369 C 166.172 203.320,163.463 210.123,160.203 218.487 L 154.276 233.695 146.063 233.698 C 141.545 233.699,137.849 233.615,137.849 233.510 C 137.849 233.406,141.965 223.791,146.996 212.145 L 156.143 190.969 157.022 172.453 C 157.505 162.269,157.956 153.747,158.025 153.514 C 158.120 153.191,160.002 153.091,165.950 153.091 L 173.751 153.091 173.738 154.530 M311.068 153.390 C 311.169 153.554,309.730 164.336,307.869 177.348 C 306.008 190.361,304.524 201.112,304.571 201.239 C 304.618 201.367,307.241 193.367,310.399 183.462 C 313.557 173.557,317.031 162.671,318.120 159.272 L 320.098 153.091 327.534 153.091 L 334.970 153.091 334.970 153.881 C 334.970 154.316,333.446 165.125,331.583 177.901 C 329.721 190.676,328.204 201.256,328.213 201.411 C 328.222 201.567,331.645 190.907,335.818 177.724 C 339.992 164.541,343.499 153.605,343.611 153.422 C 343.853 153.032,359.247 152.956,359.447 153.345 C 359.519 153.484,356.721 161.981,353.229 172.227 C 349.738 182.472,343.617 200.457,339.627 212.193 L 332.374 233.531 322.664 233.621 C 317.324 233.670,312.955 233.622,312.955 233.514 C 312.955 233.406,313.946 225.412,315.157 215.749 C 316.367 206.087,317.342 197.981,317.323 197.736 C 317.304 197.491,314.589 205.445,311.291 215.411 L 305.294 233.531 295.408 233.621 C 289.970 233.670,285.521 233.618,285.521 233.506 C 285.521 232.579,295.387 153.632,295.532 153.397 C 295.777 153.001,310.823 152.994,311.068 153.390 M126.551 167.664 C 123.771 168.497,123.642 168.876,118.201 192.211 C 112.958 214.702,112.496 217.492,113.800 218.796 C 115.534 220.529,118.636 218.877,119.877 215.559 C 120.965 212.653,130.094 172.744,130.164 170.590 C 130.256 167.784,129.147 166.886,126.551 167.664 M265.635 167.692 C 264.343 168.065,263.010 169.700,262.321 171.757 C 261.141 175.277,252.329 214.548,252.329 216.284 C 252.329 220.836,257.045 220.491,259.044 215.794 C 259.797 214.024,269.115 173.953,269.463 170.985 C 269.810 168.035,268.461 166.875,265.635 167.692 M392.744 210.552 C 397.042 215.243,396.326 222.788,391.202 226.812 C 387.366 229.825,383.958 230.172,378.235 228.133 C 374.133 226.671,372.911 226.684,371.457 228.201 C 369.541 230.202,369.083 232.769,370.078 235.928 C 370.770 238.124,370.344 239.512,368.779 240.161 C 364.555 241.910,362.228 232.980,365.387 227.145 C 368.199 221.949,373.754 220.205,379.678 222.657 C 387.413 225.859,393.249 219.938,388.265 213.945 C 385.640 210.790,389.963 207.515,392.744 210.552 M66.302 257.361 C 71.709 258.819,72.481 259.290,72.481 261.135 C 72.481 263.772,70.631 264.253,65.772 262.877 L 62.280 261.889 61.514 263.121 C 61.093 263.798,60.174 265.292,59.472 266.441 C 57.657 269.408,57.112 269.570,52.676 268.458 C 50.727 267.970,48.986 267.570,48.809 267.570 C 48.631 267.570,47.685 268.875,46.707 270.471 C 43.889 275.067,43.526 275.218,38.611 273.836 C 34.625 272.715,34.967 272.582,32.881 276.064 C 30.599 279.872,28.939 280.983,27.231 279.842 C 25.487 278.678,25.755 277.339,28.714 272.440 C 32.424 266.296,32.507 266.271,40.678 268.772 C 41.073 268.893,41.756 268.052,43.198 265.670 C 45.892 261.216,46.233 261.077,51.205 262.417 L 54.894 263.411 56.933 260.093 C 58.844 256.984,59.678 256.188,61.135 256.083 C 61.321 256.070,63.646 256.645,66.302 257.361 M328.027 271.780 C 335.478 272.233,348.815 273.002,357.663 273.491 C 366.511 273.980,374.187 274.486,374.719 274.616 C 375.546 274.817,333.540 310.673,327.621 314.818 C 326.861 315.351,307.349 297.983,307.386 296.807 C 307.397 296.467,308.537 290.512,309.920 283.573 L 312.435 270.957 313.457 270.958 C 314.019 270.958,320.576 271.328,328.027 271.780 M105.880 302.638 C 111.607 306.290,110.158 316.622,103.401 320.318 C 101.550 321.330,100.790 321.520,97.027 321.912 C 89.914 322.653,87.625 327.770,92.475 332.091 C 94.185 333.615,94.392 335.407,93.032 336.918 C 89.599 340.732,83.231 330.666,85.024 324.261 C 86.418 319.284,89.736 316.866,95.870 316.361 C 101.518 315.896,103.966 314.021,103.978 310.150 C 103.983 308.547,101.771 305.165,100.718 305.165 C 98.624 305.165,97.675 301.658,99.374 300.197 L 100.322 299.381 102.236 300.458 C 103.288 301.050,104.928 302.031,105.880 302.638 M195.900 315.372 C 201.694 318.005,206.618 320.330,206.840 320.537 C 207.336 320.998,210.018 344.539,209.606 344.810 C 209.073 345.161,154.382 359.067,154.210 358.896 C 154.116 358.802,158.455 351.818,163.852 343.376 C 185.883 308.915,184.797 310.584,185.188 310.584 C 185.285 310.584,190.106 312.739,195.900 315.372 M291.766 336.994 C 297.273 338.453,298.165 338.979,298.165 340.763 C 298.165 343.368,296.033 343.928,291.244 342.581 C 287.631 341.566,288.013 341.396,285.857 344.966 C 283.236 349.305,282.853 349.443,277.477 347.979 C 274.839 347.260,274.199 347.183,273.952 347.555 C 273.786 347.805,272.872 349.284,271.920 350.840 C 269.314 355.105,269.219 355.121,261.087 352.724 C 260.678 352.604,259.985 353.445,258.455 355.920 C 256.105 359.724,255.136 360.437,253.332 359.690 C 250.914 358.689,251.092 357.382,254.368 352.082 C 257.959 346.273,258.053 346.228,263.451 347.674 C 267.198 348.678,266.687 348.898,268.863 345.338 C 271.539 340.959,271.846 340.847,277.246 342.284 C 279.937 343.000,280.597 343.079,280.818 342.708 C 283.866 337.588,284.449 336.788,285.533 336.241 C 286.178 335.915,286.706 335.650,286.706 335.651 C 286.706 335.652,288.983 336.257,291.766 336.994 " stroke="none" fill="#ffff00" fill-rule="evenodd"></path><path id="path1" d="M125.148 153.254 C 116.838 155.086,111.222 160.238,107.904 169.072 C 107.463 170.248,104.841 180.965,102.078 192.887 L 97.055 214.564 97.056 219.306 C 97.057 229.608,101.616 234.079,112.108 234.069 C 123.756 234.059,132.031 227.808,135.956 216.056 C 137.168 212.427,146.292 172.517,146.743 168.876 C 148.222 156.918,138.950 150.210,125.148 153.254 M217.910 153.421 C 209.824 155.542,204.544 161.125,200.924 171.385 C 199.643 175.014,190.776 213.369,190.273 217.456 C 188.683 230.371,198.378 236.900,213.548 233.131 C 223.544 230.647,227.788 224.668,231.653 207.621 C 232.603 203.429,233.448 199.809,233.530 199.577 C 233.646 199.246,231.923 199.153,225.628 199.153 L 217.577 199.153 215.789 206.859 C 213.818 215.355,213.098 217.388,211.614 218.636 C 209.348 220.543,206.266 219.298,206.266 216.477 C 206.266 215.479,215.272 175.772,216.427 171.679 C 217.207 168.913,218.932 167.330,221.178 167.321 C 224.403 167.307,224.599 169.191,222.354 178.644 C 221.516 182.174,220.830 185.108,220.830 185.164 C 220.830 185.221,224.383 185.267,228.725 185.267 L 236.620 185.267 238.460 177.392 C 241.409 164.768,240.987 160.487,236.383 156.348 C 232.671 153.011,224.447 151.708,217.910 153.421 M264.306 153.258 C 255.807 155.106,249.749 160.962,246.783 170.195 C 245.890 172.978,237.105 211.006,236.382 215.220 C 234.358 227.028,239.925 234.073,251.294 234.089 C 262.980 234.106,270.935 228.105,275.157 216.088 C 276.342 212.713,285.433 173.091,285.939 169.093 C 287.482 156.897,278.340 150.206,264.306 153.258 M73.025 154.022 C 72.697 155.112,54.869 232.689,54.869 233.028 C 54.869 233.238,57.816 233.362,62.800 233.362 L 70.731 233.362 71.576 229.721 C 72.041 227.718,73.918 219.567,75.748 211.606 L 79.075 197.133 86.668 197.043 L 94.261 196.952 95.886 190.008 C 96.779 186.190,97.518 182.798,97.527 182.472 C 97.543 181.925,96.970 181.880,90.093 181.880 C 85.995 181.880,82.649 181.765,82.657 181.626 C 82.665 181.486,83.322 178.628,84.117 175.275 L 85.562 169.179 93.586 169.088 C 97.998 169.038,101.609 168.953,101.609 168.899 C 101.609 168.845,102.371 165.481,103.302 161.422 C 104.234 157.364,104.996 153.905,104.996 153.736 C 104.996 153.074,73.225 153.358,73.025 154.022 M158.071 156.224 C 157.962 157.760,157.528 166.181,157.108 174.936 L 156.345 190.855 147.440 211.491 C 142.542 222.840,138.445 232.407,138.336 232.750 C 138.147 233.346,138.501 233.370,146.199 233.283 L 154.260 233.192 160.195 218.063 C 166.493 202.008,166.711 201.521,166.450 204.103 C 166.169 206.871,164.606 230.507,164.606 231.982 L 164.606 233.362 172.566 233.362 L 180.525 233.362 180.544 232.430 C 180.554 231.918,180.834 222.354,181.165 211.177 L 181.768 190.855 189.445 172.326 C 193.667 162.135,197.121 153.714,197.121 153.613 C 197.121 153.512,193.635 153.429,189.374 153.429 L 181.628 153.429 176.762 166.888 C 174.085 174.290,171.847 180.094,171.788 179.785 C 171.686 179.255,173.179 159.037,173.603 155.207 L 173.800 153.429 166.035 153.429 L 158.271 153.429 158.071 156.224 M295.525 153.853 C 295.354 154.390,285.847 231.969,285.854 232.774 C 285.859 233.334,286.483 233.366,295.554 233.282 L 305.249 233.192 311.388 214.440 C 314.765 204.126,317.571 195.903,317.624 196.165 C 317.677 196.428,316.724 204.590,315.507 214.303 C 314.290 224.016,313.294 232.280,313.294 232.667 C 313.294 233.367,313.368 233.371,322.811 233.282 L 332.328 233.192 345.675 193.903 C 353.016 172.295,359.109 154.345,359.214 154.016 C 359.395 153.453,358.931 153.422,351.516 153.508 L 343.625 153.599 335.839 178.277 C 331.556 191.849,328.006 202.815,327.949 202.645 C 327.866 202.396,334.129 158.481,334.811 154.530 L 335.001 153.429 327.569 153.429 L 320.136 153.429 319.481 155.546 C 315.596 168.099,304.299 202.894,304.229 202.520 C 304.179 202.252,305.665 191.369,307.531 178.337 C 309.396 165.305,310.923 154.369,310.923 154.035 C 310.923 153.259,295.772 153.079,295.525 153.853 M129.721 167.993 C 130.896 169.169,130.557 171.186,125.478 193.226 C 119.605 218.717,119.321 219.475,115.644 219.475 C 113.803 219.475,112.786 218.360,112.786 216.342 C 112.786 214.565,122.477 172.622,123.292 170.872 C 124.816 167.601,127.932 166.205,129.721 167.993 M268.925 167.993 C 269.431 168.500,269.601 169.118,269.598 170.449 C 269.593 172.627,260.150 213.579,259.078 216.071 C 256.967 220.976,251.631 220.731,252.089 215.749 C 252.247 214.026,260.857 176.147,262.000 172.144 C 263.103 168.283,266.924 165.993,268.925 167.993 " stroke="none" fill="#ff0000" fill-rule="evenodd"></path><path id="path2" d="M205.292 18.133 C 199.447 20.812,194.623 23.048,194.572 23.102 C 194.466 23.215,191.733 46.882,191.816 46.963 C 191.867 47.012,213.452 37.264,213.623 37.115 C 213.665 37.079,214.232 32.333,214.885 26.569 C 215.537 20.804,216.161 15.440,216.270 14.649 C 216.520 12.831,217.628 12.479,205.292 18.133 M67.505 56.587 C 65.959 57.164,65.761 58.038,65.957 63.406 C 66.200 70.074,66.133 69.972,71.152 71.314 L 75.021 72.348 75.198 76.226 C 75.435 81.449,75.486 81.514,80.354 82.811 L 84.166 83.827 84.505 87.971 C 84.937 93.261,84.852 93.171,90.805 94.683 C 96.172 96.046,96.954 96.093,97.870 95.110 C 99.455 93.408,98.274 91.492,95.102 90.621 C 93.931 90.300,92.184 89.814,91.222 89.541 L 89.472 89.045 89.359 85.005 C 89.223 80.135,89.120 79.985,85.182 78.925 C 83.692 78.523,81.998 78.048,81.418 77.867 L 80.364 77.540 80.193 73.665 C 79.962 68.411,79.950 68.397,75.075 67.208 L 71.201 66.263 70.965 62.172 C 70.679 57.220,69.764 55.743,67.505 56.587 M352.710 98.713 C 352.325 98.983,351.153 100.638,350.107 102.391 L 348.205 105.579 344.423 104.560 C 339.610 103.263,339.397 103.330,337.107 106.859 C 334.118 111.464,334.980 111.061,330.470 109.961 C 325.461 108.739,325.601 108.666,322.110 114.314 C 319.167 119.075,318.956 119.834,320.222 121.099 C 321.941 122.819,323.220 122.082,325.822 117.873 C 326.989 115.984,328.115 114.504,328.324 114.582 C 328.533 114.661,330.337 115.149,332.332 115.666 C 336.803 116.825,336.828 116.814,339.560 112.372 C 340.623 110.644,341.535 109.180,341.587 109.120 C 341.639 109.060,343.400 109.474,345.501 110.040 C 350.218 111.311,350.413 111.245,352.809 107.536 C 355.688 103.081,354.901 103.443,359.178 104.607 C 364.200 105.974,366.090 105.210,365.316 102.127 C 364.859 100.306,354.457 97.489,352.710 98.713 M59.763 256.717 C 59.382 256.872,58.184 258.462,57.101 260.252 C 56.018 262.041,54.958 263.506,54.744 263.506 C 54.531 263.506,52.985 263.126,51.310 262.663 C 46.222 261.256,46.018 261.340,43.247 265.984 L 41.343 269.174 37.860 268.214 C 32.479 266.732,32.476 266.733,29.597 271.388 C 25.736 277.630,25.478 278.812,27.770 279.762 C 29.584 280.513,31.120 278.984,34.518 273.043 C 34.728 272.676,35.505 272.785,38.575 273.612 C 43.560 274.956,43.670 274.914,46.247 270.748 C 48.707 266.772,48.153 267.031,52.017 268.060 C 57.394 269.491,57.387 269.494,60.253 264.748 C 61.229 263.133,62.208 261.812,62.430 261.812 C 62.652 261.812,64.204 262.191,65.879 262.655 C 70.347 263.891,72.481 263.410,72.481 261.169 C 72.481 259.008,62.625 255.558,59.763 256.717 M312.488 271.880 C 312.279 272.577,307.536 296.679,307.536 297.042 C 307.536 297.240,321.412 310.007,325.862 313.903 L 327.084 314.972 329.527 302.702 C 330.872 295.953,332.044 290.124,332.133 289.747 C 332.263 289.199,330.521 287.441,323.476 281.006 C 312.116 270.632,312.713 271.127,312.488 271.880 M185.107 311.854 C 185.197 312.367,185.814 317.663,186.479 323.624 C 187.144 329.585,187.791 334.555,187.917 334.669 C 188.343 335.055,209.354 344.527,209.488 344.393 C 209.727 344.154,207.033 321.038,206.730 320.736 C 206.382 320.388,185.643 310.923,185.228 310.923 C 185.072 310.923,185.018 311.342,185.107 311.854 M285.527 336.422 C 284.835 336.772,283.640 338.452,280.846 343.008 C 280.651 343.325,279.709 343.186,276.874 342.418 C 271.873 341.063,271.680 341.135,269.139 345.300 C 266.726 349.253,267.349 348.991,263.154 347.820 C 258.153 346.424,258.154 346.424,254.725 351.926 C 251.801 356.617,251.456 357.807,252.667 359.018 C 254.364 360.715,255.752 359.893,258.391 355.631 C 259.486 353.861,260.514 352.438,260.674 352.468 C 260.834 352.499,262.607 352.955,264.614 353.482 C 269.182 354.681,269.330 354.616,272.051 350.212 C 273.145 348.442,274.222 347.009,274.446 347.028 C 274.669 347.047,276.497 347.491,278.508 348.015 L 282.164 348.967 283.055 348.302 C 283.761 347.774,287.189 342.794,287.625 341.661 C 287.678 341.521,289.460 341.873,291.584 342.442 C 295.830 343.580,296.870 343.491,297.712 341.917 C 298.877 339.741,297.696 338.815,291.692 337.198 C 286.626 335.833,286.677 335.840,285.527 336.422 " stroke="none" fill="#060604" fill-rule="evenodd"></path><path id="path3" d="M132.599 25.738 L 128.874 26.979 128.770 28.204 C 128.579 30.446,130.900 31.575,133.108 30.313 C 136.542 28.350,141.236 31.581,141.236 35.907 C 141.236 37.907,141.165 38.064,138.723 41.467 C 134.745 47.012,134.798 51.602,138.890 56.042 C 141.199 58.546,146.304 60.232,149.699 59.611 C 153.740 58.872,153.110 54.279,148.992 54.458 C 142.021 54.761,139.036 50.052,142.845 44.761 C 145.233 41.444,145.559 40.855,146.174 38.739 C 147.899 32.805,143.842 26.183,137.628 24.789 C 136.541 24.546,135.708 24.703,132.599 25.738 M202.967 42.098 C 197.147 44.744,192.384 46.991,192.383 47.091 C 192.379 47.285,246.304 61.345,246.458 61.191 C 246.569 61.080,214.364 37.555,213.887 37.398 C 213.700 37.337,208.786 39.452,202.967 42.098 M298.500 53.898 C 296.203 55.066,297.310 58.933,299.941 58.933 C 302.320 58.933,304.599 61.991,304.417 64.941 C 304.201 68.450,302.845 69.698,297.357 71.437 C 291.397 73.327,288.945 76.686,289.321 82.446 C 289.729 88.683,296.736 95.275,299.383 91.910 C 300.725 90.204,300.218 89.097,296.967 86.637 C 292.311 83.113,293.617 78.155,299.721 76.185 C 307.956 73.526,311.502 67.687,309.111 60.721 C 307.606 56.337,301.468 52.389,298.500 53.898 M17.182 145.623 C 12.369 147.161,10.181 150.025,12.300 152.015 C 13.368 153.019,14.785 152.934,16.512 151.763 C 19.644 149.640,23.093 149.697,25.304 151.908 L 26.431 153.036 26.340 158.062 L 26.249 163.089 27.364 165.358 C 30.024 170.770,36.140 173.208,41.723 171.082 C 43.646 170.350,47.829 164.713,47.262 163.617 C 46.206 161.576,44.422 161.707,42.379 163.975 C 39.210 167.494,35.270 167.521,32.619 164.042 C 31.674 162.801,31.668 162.763,31.668 157.666 C 31.668 147.704,25.837 142.857,17.182 145.623 M388.616 210.107 C 387.411 211.144,387.393 212.619,388.568 214.016 C 391.137 217.069,390.410 221.316,386.989 223.239 C 385.104 224.298,383.467 224.187,379.188 222.708 C 372.625 220.440,367.779 222.228,365.195 227.871 C 362.507 233.743,365.116 242.118,368.939 239.885 C 370.241 239.125,370.560 238.008,369.968 236.283 C 368.868 233.078,369.633 229.341,371.714 227.754 C 373.219 226.606,374.735 226.690,378.972 228.152 C 387.627 231.141,395.346 226.349,395.391 217.961 C 395.421 212.365,391.404 207.709,388.616 210.107 M353.599 282.069 L 332.430 289.077 329.858 302.042 C 327.518 313.837,327.350 314.949,327.995 314.373 C 328.385 314.025,338.840 305.314,351.228 295.015 C 372.967 276.942,375.274 274.997,374.927 275.042 C 374.839 275.053,365.241 278.215,353.599 282.069 M99.297 300.530 C 98.025 301.884,98.838 304.826,100.484 304.826 C 102.700 304.826,104.853 310.284,103.600 312.723 C 102.242 315.365,100.969 316.003,96.024 316.518 C 89.906 317.154,87.717 318.481,85.760 322.737 C 83.808 326.984,85.180 332.853,88.934 336.313 C 92.422 339.528,95.584 336.035,92.456 332.421 C 87.691 326.915,89.566 322.387,96.878 321.745 C 106.070 320.939,111.147 314.630,108.762 306.976 C 107.831 303.986,107.751 303.895,104.043 301.647 C 100.491 299.493,100.311 299.451,99.297 300.530 M169.655 334.577 C 161.347 347.554,154.586 358.218,154.630 358.274 C 154.998 358.757,187.620 334.497,187.478 333.846 C 187.389 333.440,186.767 328.155,186.095 322.101 C 185.424 316.048,184.848 311.069,184.816 311.039 C 184.785 311.008,177.962 321.600,169.655 334.577 " stroke="none" fill="#e43493" fill-rule="evenodd"></path><path id="path4" d="M215.188 25.038 C 214.431 31.665,213.828 37.099,213.849 37.114 C 213.870 37.129,221.257 42.510,230.264 49.074 C 239.272 55.637,246.693 60.956,246.755 60.894 C 246.817 60.832,241.985 53.087,236.017 43.684 C 230.049 34.281,223.230 23.528,220.865 19.788 L 216.564 12.988 215.188 25.038 M312.955 271.097 C 312.955 271.511,332.380 288.937,332.715 288.823 C 332.931 288.749,342.514 285.584,354.012 281.788 C 365.509 277.993,374.873 274.844,374.820 274.791 C 374.729 274.701,364.864 274.105,331.075 272.148 C 323.065 271.685,315.711 271.225,314.733 271.128 C 313.755 271.031,312.955 271.017,312.955 271.097 M170.972 346.771 C 162.085 353.227,154.732 358.598,154.631 358.707 C 154.530 358.815,157.609 358.092,161.474 357.100 C 165.339 356.109,177.570 352.984,188.654 350.157 C 199.738 347.330,208.915 344.927,209.048 344.816 C 209.340 344.571,188.360 334.953,187.638 335.000 C 187.358 335.018,179.859 340.315,170.972 346.771 " stroke="none" fill="#ecf2f0" fill-rule="evenodd"></path><path id="path5" d="M135.557 48.772 C 135.557 49.424,135.627 49.691,135.712 49.365 C 135.797 49.039,135.797 48.506,135.712 48.180 C 135.627 47.854,135.557 48.120,135.557 48.772 M147.248 54.430 C 147.667 54.511,148.353 54.511,148.772 54.430 C 149.191 54.350,148.848 54.284,148.010 54.284 C 147.172 54.284,146.829 54.350,147.248 54.430 M288.986 81.626 C 288.986 82.278,289.056 82.544,289.141 82.218 C 289.226 81.892,289.226 81.359,289.141 81.033 C 289.056 80.707,288.986 80.974,288.986 81.626 M129.967 152.658 C 130.568 152.732,131.635 152.734,132.338 152.660 C 133.041 152.587,132.549 152.526,131.245 152.524 C 129.941 152.523,129.366 152.583,129.967 152.658 M223.108 152.658 C 223.710 152.732,224.777 152.734,225.479 152.660 C 226.182 152.587,225.690 152.526,224.386 152.524 C 223.082 152.523,222.507 152.583,223.108 152.658 M269.862 152.659 C 270.471 152.734,271.385 152.732,271.894 152.655 C 272.403 152.578,271.905 152.516,270.787 152.518 C 269.670 152.520,269.253 152.583,269.862 152.659 M161.981 153.344 C 164.170 153.403,167.752 153.403,169.941 153.344 C 172.130 153.285,170.339 153.236,165.961 153.236 C 161.583 153.236,159.793 153.285,161.981 153.344 M184.081 153.326 C 190.764 153.568,197.461 153.577,197.460 153.345 C 197.460 153.205,193.840 153.122,189.416 153.160 C 184.992 153.197,182.591 153.273,184.081 153.326 M157.929 155.631 C 157.932 156.562,157.998 156.903,158.075 156.388 C 158.153 155.873,158.151 155.111,158.071 154.695 C 157.990 154.278,157.927 154.699,157.929 155.631 M173.491 156.139 C 173.491 156.791,173.561 157.058,173.646 156.732 C 173.731 156.406,173.731 155.872,173.646 155.546 C 173.561 155.220,173.491 155.487,173.491 156.139 M113.611 159.272 L 112.616 160.373 113.717 159.378 C 114.323 158.831,114.818 158.335,114.818 158.277 C 114.818 158.015,114.538 158.246,113.611 159.272 M157.591 162.405 C 157.593 163.336,157.659 163.677,157.737 163.162 C 157.815 162.647,157.812 161.885,157.732 161.469 C 157.652 161.052,157.588 161.473,157.591 162.405 M157.252 169.179 C 157.254 170.110,157.320 170.451,157.398 169.936 C 157.476 169.421,157.474 168.659,157.393 168.243 C 157.313 167.826,157.249 168.247,157.252 169.179 M172.475 169.009 C 172.475 169.661,172.545 169.928,172.630 169.602 C 172.715 169.276,172.715 168.743,172.630 168.417 C 172.545 168.091,172.475 168.357,172.475 169.009 M172.136 173.412 C 172.136 174.064,172.206 174.331,172.291 174.005 C 172.376 173.679,172.376 173.146,172.291 172.820 C 172.206 172.494,172.136 172.760,172.136 173.412 M156.913 175.953 C 156.916 176.884,156.981 177.225,157.059 176.710 C 157.137 176.195,157.135 175.433,157.055 175.017 C 156.974 174.600,156.911 175.021,156.913 175.953 M82.669 181.287 C 82.644 181.834,83.211 181.880,90.065 181.880 C 95.686 181.880,97.529 181.983,97.659 182.303 C 97.761 182.556,97.840 182.488,97.856 182.134 C 97.881 181.587,97.314 181.541,90.460 181.541 C 84.839 181.541,82.996 181.438,82.866 181.118 C 82.764 180.865,82.685 180.933,82.669 181.287 M156.570 182.896 C 156.570 183.734,156.636 184.077,156.717 183.658 C 156.797 183.239,156.797 182.553,156.717 182.134 C 156.636 181.715,156.570 182.058,156.570 182.896 M156.231 189.670 C 156.231 190.508,156.297 190.851,156.378 190.432 C 156.459 190.013,156.459 189.327,156.378 188.908 C 156.297 188.489,156.231 188.831,156.231 189.670 M181.657 194.920 C 181.658 196.410,181.718 196.977,181.789 196.181 C 181.861 195.384,181.860 194.165,181.787 193.471 C 181.714 192.778,181.656 193.429,181.657 194.920 M221.423 199.068 C 223.704 199.126,227.439 199.126,229.721 199.068 C 232.003 199.009,230.135 198.961,225.572 198.961 C 221.008 198.961,219.141 199.009,221.423 199.068 M181.318 206.774 C 181.320 208.264,181.379 208.832,181.451 208.035 C 181.522 207.238,181.521 206.019,181.449 205.326 C 181.376 204.632,181.317 205.284,181.318 206.774 M166.040 207.621 C 166.040 208.273,166.109 208.539,166.195 208.213 C 166.280 207.887,166.280 207.354,166.195 207.028 C 166.109 206.702,166.040 206.969,166.040 207.621 M165.701 212.362 C 165.701 213.014,165.771 213.281,165.856 212.955 C 165.941 212.629,165.941 212.096,165.856 211.770 C 165.771 211.444,165.701 211.710,165.701 212.362 M206.363 216.257 C 206.365 217.189,206.431 217.530,206.509 217.015 C 206.587 216.500,206.585 215.738,206.504 215.321 C 206.424 214.905,206.360 215.326,206.363 216.257 M252.087 216.257 C 252.089 217.189,252.155 217.530,252.233 217.015 C 252.311 216.500,252.309 215.738,252.228 215.321 C 252.148 214.905,252.084 215.326,252.087 216.257 M165.362 217.443 C 165.362 218.095,165.432 218.362,165.517 218.036 C 165.602 217.710,165.602 217.176,165.517 216.850 C 165.432 216.524,165.362 216.791,165.362 217.443 M180.980 218.967 C 180.981 220.457,181.041 221.025,181.112 220.228 C 181.184 219.432,181.183 218.212,181.110 217.519 C 181.037 216.825,180.979 217.477,180.980 218.967 M96.625 219.306 C 96.628 220.237,96.694 220.578,96.771 220.063 C 96.849 219.548,96.847 218.786,96.767 218.370 C 96.686 217.953,96.623 218.374,96.625 219.306 M165.024 222.523 C 165.024 223.175,165.093 223.442,165.178 223.116 C 165.264 222.790,165.264 222.257,165.178 221.931 C 165.093 221.605,165.024 221.871,165.024 222.523 M164.685 227.265 C 164.685 227.917,164.755 228.184,164.840 227.858 C 164.925 227.532,164.925 226.998,164.840 226.672 C 164.755 226.346,164.685 226.613,164.685 227.265 M180.591 230.737 L 180.525 233.362 172.587 233.362 L 164.649 233.362 164.513 232.261 C 164.378 231.177,164.375 231.180,164.322 232.430 L 164.268 233.700 172.407 233.700 C 181.667 233.700,180.958 233.976,180.777 230.449 L 180.658 228.112 180.591 230.737 M285.560 232.938 L 285.521 233.700 295.323 233.700 C 300.714 233.700,305.196 233.586,305.282 233.446 C 305.369 233.307,301.046 233.235,295.676 233.287 C 286.556 233.375,285.903 233.342,285.756 232.779 C 285.635 232.313,285.590 232.349,285.560 232.938 M312.994 232.938 L 312.955 233.700 322.588 233.700 C 327.886 233.700,332.292 233.586,332.378 233.446 C 332.465 233.307,328.218 233.235,322.941 233.287 C 313.982 233.375,313.337 233.342,313.191 232.779 C 313.069 232.313,313.025 232.349,312.994 232.938 M54.535 233.108 C 54.530 233.658,55.116 233.695,62.743 233.622 L 70.957 233.544 63.013 233.446 C 57.183 233.375,55.000 233.238,54.805 232.932 C 54.620 232.640,54.539 232.692,54.535 233.108 M137.849 233.446 C 137.849 233.586,141.498 233.700,145.958 233.700 C 150.418 233.700,154.137 233.586,154.224 233.446 C 154.310 233.307,150.661 233.192,146.115 233.192 C 141.569 233.192,137.849 233.307,137.849 233.446 M109.995 234.278 C 110.417 234.360,111.026 234.356,111.350 234.272 C 111.674 234.187,111.329 234.121,110.584 234.124 C 109.839 234.128,109.574 234.197,109.995 234.278 M112.870 234.272 C 113.196 234.358,113.730 234.358,114.056 234.272 C 114.382 234.187,114.115 234.118,113.463 234.118 C 112.811 234.118,112.544 234.187,112.870 234.272 M203.137 234.278 C 203.558 234.360,204.168 234.356,204.492 234.272 C 204.815 234.187,204.471 234.121,203.726 234.124 C 202.981 234.128,202.716 234.197,203.137 234.278 M206.012 234.272 C 206.338 234.358,206.871 234.358,207.197 234.272 C 207.523 234.187,207.257 234.118,206.605 234.118 C 205.953 234.118,205.686 234.187,206.012 234.272 M249.200 234.278 C 249.621 234.360,250.231 234.356,250.554 234.272 C 250.878 234.187,250.533 234.121,249.788 234.124 C 249.043 234.128,248.778 234.197,249.200 234.278 M252.413 234.272 C 252.739 234.358,253.273 234.358,253.599 234.272 C 253.925 234.187,253.658 234.118,253.006 234.118 C 252.354 234.118,252.087 234.187,252.413 234.272 " stroke="none" fill="#f8881e" fill-rule="evenodd"></path><path id="path6" d="M70.889 60.288 C 70.889 61.312,70.952 61.732,71.030 61.219 C 71.108 60.707,71.108 59.869,71.030 59.356 C 70.952 58.844,70.889 59.263,70.889 60.288 M65.818 62.828 C 65.820 64.132,65.881 64.624,65.954 63.921 C 66.028 63.219,66.026 62.152,65.951 61.550 C 65.877 60.949,65.817 61.524,65.818 62.828 M74.812 73.232 C 74.967 74.173,75.015 74.221,75.122 73.543 C 75.191 73.102,75.108 72.602,74.938 72.431 C 74.750 72.243,74.700 72.559,74.812 73.232 M89.521 87.214 C 89.523 88.332,89.586 88.748,89.661 88.140 C 89.737 87.531,89.735 86.616,89.658 86.107 C 89.580 85.598,89.519 86.097,89.521 87.214 M84.432 89.924 C 84.435 90.855,84.501 91.196,84.578 90.681 C 84.656 90.166,84.654 89.404,84.574 88.988 C 84.493 88.571,84.430 88.992,84.432 89.924 M312.433 271.318 C 312.310 271.517,312.301 271.771,312.413 271.883 C 312.525 271.994,312.616 271.881,312.616 271.632 C 312.616 271.341,312.951 271.473,313.548 271.999 L 314.479 272.820 313.658 271.888 C 312.723 270.827,312.733 270.832,312.433 271.318 " stroke="none" fill="#998c18" fill-rule="evenodd"></path><path id="path7" d="M137.849 55.313 C 137.849 55.372,138.345 55.867,138.950 56.414 L 140.051 57.409 139.056 56.308 C 138.129 55.282,137.849 55.052,137.849 55.313 M306.329 72.904 L 305.334 74.005 306.435 73.010 C 307.041 72.463,307.536 71.968,307.536 71.910 C 307.536 71.648,307.257 71.878,306.329 72.904 M20.237 144.862 C 20.656 144.943,21.342 144.943,21.761 144.862 C 22.180 144.782,21.837 144.715,20.999 144.715 C 20.161 144.715,19.818 144.782,20.237 144.862 M81.033 153.344 C 85.457 153.398,92.697 153.398,97.121 153.344 C 101.545 153.291,97.925 153.247,89.077 153.247 C 80.229 153.247,76.609 153.291,81.033 153.344 M299.511 153.344 C 301.710 153.403,305.216 153.403,307.301 153.343 C 309.386 153.284,307.587 153.236,303.302 153.236 C 299.018 153.236,297.312 153.285,299.511 153.344 M323.709 153.343 C 325.804 153.403,329.234 153.403,331.329 153.343 C 333.425 153.284,331.710 153.235,327.519 153.235 C 323.328 153.235,321.613 153.284,323.709 153.343 M346.317 153.326 C 352.998 153.568,359.618 153.577,359.474 153.345 C 359.387 153.205,355.782 153.122,351.462 153.160 C 347.142 153.197,344.826 153.273,346.317 153.326 M383.489 229.531 C 383.815 229.616,384.348 229.616,384.674 229.531 C 385.000 229.445,384.733 229.376,384.081 229.376 C 383.429 229.376,383.163 229.445,383.489 229.531 M363.845 232.854 C 363.849 233.599,363.918 233.864,363.999 233.442 C 364.080 233.021,364.077 232.411,363.992 232.087 C 363.907 231.764,363.841 232.108,363.845 232.854 " stroke="none" fill="#f3b317" fill-rule="evenodd"></path><path id="path8" d="M314.903 271.196 C 315.322 271.277,316.008 271.277,316.427 271.196 C 316.846 271.115,316.503 271.049,315.665 271.049 C 314.826 271.049,314.483 271.115,314.903 271.196 M320.664 271.535 C 321.086 271.616,321.695 271.613,322.019 271.528 C 322.343 271.443,321.998 271.377,321.253 271.381 C 320.508 271.385,320.243 271.454,320.664 271.535 M326.080 271.873 C 326.499 271.954,327.185 271.954,327.604 271.873 C 328.023 271.793,327.680 271.726,326.842 271.726 C 326.003 271.726,325.660 271.793,326.080 271.873 M331.841 272.212 C 332.263 272.293,332.872 272.290,333.196 272.206 C 333.520 272.121,333.175 272.055,332.430 272.058 C 331.685 272.062,331.420 272.131,331.841 272.212 M337.257 272.551 C 337.676 272.631,338.362 272.631,338.781 272.551 C 339.200 272.470,338.857 272.404,338.019 272.404 C 337.180 272.404,336.837 272.470,337.257 272.551 M343.184 272.893 C 343.696 272.970,344.534 272.970,345.047 272.893 C 345.559 272.815,345.140 272.752,344.115 272.752 C 343.091 272.752,342.671 272.815,343.184 272.893 M349.450 273.228 C 349.869 273.309,350.555 273.309,350.974 273.228 C 351.393 273.147,351.050 273.081,350.212 273.081 C 349.373 273.081,349.030 273.147,349.450 273.228 M355.207 273.567 C 355.627 273.647,356.312 273.647,356.732 273.567 C 357.151 273.486,356.808 273.420,355.970 273.420 C 355.131 273.420,354.788 273.486,355.207 273.567 M360.965 273.905 C 361.384 273.986,362.070 273.986,362.489 273.905 C 362.909 273.825,362.566 273.759,361.727 273.759 C 360.889 273.759,360.546 273.825,360.965 273.905 M366.723 274.244 C 367.142 274.325,367.828 274.325,368.247 274.244 C 368.666 274.163,368.323 274.097,367.485 274.097 C 366.647 274.097,366.304 274.163,366.723 274.244 M372.481 274.583 C 372.900 274.664,373.586 274.664,374.005 274.583 C 374.424 274.502,374.081 274.436,373.243 274.436 C 372.405 274.436,372.062 274.502,372.481 274.583 " stroke="none" fill="#ffff00" fill-rule="evenodd"></path></g></svg>
